<?xml version="1.0" standalone="no"?>
<!DOCTYPE svg PUBLIC "-//W3C//DTD SVG 20010904//EN"
 "http://www.w3.org/TR/2001/REC-SVG-20010904/DTD/svg10.dtd">
<svg version="1.0" xmlns="http://www.w3.org/2000/svg"
 width="512.000000pt" height="512.000000pt" viewBox="0 0 512.000000 512.000000"
 preserveAspectRatio="xMidYMid meet">
<metadata>
Created by potrace 1.11, written by Peter Selinger 2001-2013
</metadata>
<g transform="translate(0.000000,512.000000) scale(0.100000,-0.100000)"
fill="#000000" stroke="none">
<path d="M1338 4275 c-2 -2 -34 -5 -73 -8 -38 -3 -83 -9 -99 -12 -49 -10 -300
-75 -303 -79 -2 -2 60 -41 138 -86 78 -46 174 -109 214 -141 65 -52 188 -179
246 -253 l23 -29 -24 7 c-147 41 -414 62 -550 42 -25 -4 -65 -9 -90 -13 -25
-3 -54 -7 -65 -9 -11 -3 -44 -7 -74 -11 -30 -3 -66 -9 -80 -13 l-26 -7 25 -12
c14 -6 37 -19 52 -29 14 -9 73 -44 130 -76 209 -121 359 -255 563 -507 105
-130 179 -228 173 -230 -1 0 -48 -2 -103 -3 -69 -2 -110 -7 -130 -18 -58 -31
-60 -41 -60 -377 1 -282 2 -308 19 -334 23 -34 65 -57 106 -57 27 0 30 -3 31
-32 3 -58 6 -102 13 -168 8 -79 16 -174 31 -360 11 -148 16 -176 41 -227 31
-64 89 -116 172 -154 121 -55 159 -58 716 -59 280 0 512 -3 517 -6 5 -3 9 -2
9 3 0 4 15 9 34 10 110 5 244 62 315 133 58 58 77 109 86 225 3 44 8 96 10
115 2 19 7 71 10 115 4 44 8 96 10 115 2 19 7 76 11 125 4 50 8 99 10 110 1
11 3 28 3 38 1 11 9 17 27 17 41 0 93 30 111 64 14 27 16 74 16 333 1 266 -1
304 -16 327 -25 38 -63 59 -110 61 -23 1 -42 5 -42 8 0 7 123 175 145 197 8 9
33 38 54 65 22 28 47 57 55 66 9 9 42 47 75 83 32 36 63 63 69 59 5 -3 7 -1 3
5 -8 14 145 144 242 205 42 26 126 76 185 110 l109 62 -39 7 c-21 3 -51 9 -67
12 -17 3 -57 8 -90 12 -34 3 -63 7 -66 9 -11 7 -154 18 -225 19 -67 0 -177 -9
-240 -19 -57 -10 -140 -26 -159 -32 -17 -5 -17 -2 5 28 42 60 252 264 309 301
54 35 216 130 266 156 14 8 24 15 22 17 -3 3 -194 54 -263 70 -106 25 -332 36
-435 20 -166 -25 -262 -55 -402 -125 -167 -84 -311 -206 -433 -367 -21 -29
-42 -53 -45 -53 -3 0 -21 24 -40 53 -51 75 -214 235 -295 289 -121 79 -303
160 -415 183 -83 17 -332 39 -342 30z"/>
</g>
</svg>
