<svg xmlns="http://www.w3.org/2000/svg" xmlns:xlink="http://www.w3.org/1999/xlink" version="1.1" id="Capa_1" x="0px" y="0px" viewBox="0 0 504.5 504.5" style="enable-background:new 0 0 504.5 504.5;" xml:space="preserve" width="512" height="512">
<g>
	<g id="XMLID_84_">
		<g>
			<path style="fill:#70AB33;" d="M380.25,383.942v14.568c0,14.63-11.86,26.49-26.49,26.49h-20.51v-17.51     c0-14.63,11.86-26.49,26.49-26.49h17.568C378.933,381,380.25,382.317,380.25,383.942z"/>
		</g>
	</g>
	<path style="fill:#70AB33;" d="M148.25,347.49V365h-20.51c-14.63,0-26.49-11.86-26.49-26.49v-15.014   c0-1.378,1.117-2.496,2.496-2.496h18.014C136.39,321,148.25,332.86,148.25,347.49z"/>
	<path style="fill:#70AB33;" d="M496.25,124.27v14.24c0,14.63-11.86,26.49-26.49,26.49h-20.51v-17.51   c0-14.63,11.86-26.49,26.49-26.49h17.24C494.786,121,496.25,122.464,496.25,124.27z"/>
	<path style="fill:#70AB33;" d="M54.25,61.49V80H34.74C20.11,80,8.25,68.14,8.25,53.51V40.298c0-2.374,1.924-4.298,4.298-4.298   H28.76C42.838,36,54.25,47.412,54.25,61.49z"/>
	<path style="fill:#70AB33;" d="M71.25,220.49V238H50.74c-14.63,0-26.49-11.86-26.49-26.49v-13.635c0-2.14,1.735-3.875,3.875-3.875   H44.76C59.39,194,71.25,205.86,71.25,220.49z"/>
	<path style="fill:#6AA02B;" d="M143.32,353.056c-14.63,0-26.49-11.86-26.49-26.49V321h-13.084c-1.378,0-2.496,1.117-2.496,2.496   v15.014c0,14.63,11.86,26.49,26.49,26.49h20.51v-11.944H143.32z"/>
	<path style="fill:#6AA02B;" d="M50.32,68.056c-14.63,0-26.49-11.86-26.49-26.49V36H12.548c-2.374,0-4.298,1.924-4.298,4.298V53.51   C8.25,68.14,20.11,80,34.74,80h19.51V68.056H50.32z"/>
	<path style="fill:#6AA02B;" d="M66.32,226.056c-14.63,0-26.49-11.86-26.49-26.49V194H28.125c-2.14,0-3.875,1.735-3.875,3.875   v13.635c0,14.63,11.86,26.49,26.49,26.49h20.51v-11.944H66.32z"/>
	<path style="fill:#70AB33;" d="M413.25,260.676v14.834c0,14.63-11.86,26.49-26.49,26.49h-20.51v-17.51   c0-14.63,11.86-26.49,26.49-26.49h17.834C412.052,258,413.25,259.198,413.25,260.676z"/>
	<path style="fill:#6AA02B;" d="M371.309,414.234h-3c-9.67,0-17.51-7.839-17.51-17.51v0c0-5.757,1.842-11.081,4.961-15.426   c-12.742,1.92-22.51,12.915-22.51,26.192V425h20.51c8.873,0,16.721-4.367,21.529-11.064   C373.99,414.131,372.662,414.234,371.309,414.234z"/>
	<path style="fill:#6AA02B;" d="M487.309,154.234h-3c-9.67,0-17.51-7.839-17.51-17.51v0c0-5.757,1.842-11.081,4.961-15.426   c-12.742,1.92-22.51,12.915-22.51,26.192V165h20.51c8.873,0,16.721-4.367,21.529-11.064   C489.99,154.131,488.662,154.234,487.309,154.234z"/>
	<path style="fill:#6AA02B;" d="M404.309,291.234h-3c-9.67,0-17.51-7.839-17.51-17.51v0c0-5.757,1.842-11.081,4.961-15.426   c-12.742,1.92-22.51,12.915-22.51,26.192V302h20.51c8.873,0,16.721-4.367,21.529-11.064   C406.99,291.131,405.662,291.234,404.309,291.234z"/>
	<g>
		<path style="fill:#956341;" d="M209.046,373.28H189.07c-9.27,0-16.81-7.54-16.81-16.81c0-9.26,7.54-16.8,16.81-16.8h50.11h14.7    v-26h-14.7h-50.11c-23.6,0-42.81,19.2-42.81,42.8c0,23.61,19.21,42.81,42.81,42.81h19.976V373.28z"/>
		<path style="fill:#8C5835;" d="M189.07,324.615c-9.27,0-16.81,7.54-16.81,16.8c0,2.709,0.659,5.262,1.802,7.531    c2.768-5.49,8.447-9.276,15.008-9.276h50.11h14.7v-15.055h-14.7H189.07z"/>
		<path style="fill:#956341;" d="M298.55,373.28h-8.986v26h8.986c7.07,0,12.81,5.75,12.81,12.81c0,7.07-5.74,12.81-12.81,12.81    H268.2h-14.45v26h14.45h30.35c21.4,0,38.81-17.41,38.81-38.81C337.36,390.69,319.95,373.28,298.55,373.28z"/>
		<path style="fill:#8C5835;" d="M298.55,435.845H268.2h-14.45V450.9h14.45h30.35c21.4,0,38.81-17.41,38.81-38.81    c0-2.575-0.258-5.091-0.739-7.527C333.106,422.371,317.375,435.845,298.55,435.845z"/>
	</g>
	<g>
		<path style="fill:#956341;" d="M322.21,245.5c25.96,0,47.08,21.12,47.08,47.08c0,25.96-21.12,47.09-47.08,47.09h-54.89h-13.44v-26    h14.32h54.01c11.63,0,21.08-9.46,21.08-21.09c0-11.62-9.45-21.08-21.08-21.08h-11.94l-21.14-0.3v-25.7h32.12H322.21z"/>
	</g>
	<g>
		<path style="fill:#8C5835;" d="M322.21,324.615h-54.89h-13.44v15.055h13.44h54.89c25.96,0,47.08-21.13,47.08-47.09    c0-2.563-0.213-5.075-0.609-7.527C365.066,307.448,345.608,324.615,322.21,324.615z"/>
	</g>
	<path style="fill:#8C5835;" d="M322.21,271.5c8.975,0,16.63,5.643,19.668,13.555c0.899-2.342,1.412-4.875,1.412-7.53   c0-11.62-9.45-21.08-21.08-21.08h-11.94l-21.14-0.3V271.2l21.14,0.3H322.21z"/>
	<g>
		<polygon style="fill:#85898E;" points="267.32,400.28 267.32,497.02 239.18,497.02 239.18,400.28 239.18,372.28 239.18,274     267.32,274 267.32,372.28   "/>
	</g>
	<polygon style="fill:#787D82;" points="253.25,372.28 253.25,274 239.18,274 239.18,372.28 239.18,400.28 239.18,497.02    253.25,497.02 253.25,400.28  "/>
	<rect x="203.055" y="373.28" style="fill:#956341;" width="92.5" height="26"/>
	<g>
		<path style="fill:#956341;" d="M219.07,245.5v26h-24.84h-77.15c-27.16,0-49.25-22.09-49.25-49.25S89.92,173,117.08,173h8.23h50.91    v26h-27.5h-31.64c-12.82,0-23.25,10.43-23.25,23.25s10.43,23.25,23.25,23.25h66.17C184.25,245.3,219.07,245.5,219.07,245.5z"/>
	</g>
	<g>
		<path style="fill:#8C5835;" d="M117.08,256.445c-24.601,0-45.042-18.124-48.675-41.722c-0.378,2.455-0.575,4.968-0.575,7.527    c0,27.16,22.09,49.25,49.25,49.25h77.15h24.84v-15.055h-24.84H117.08z"/>
	</g>
	<path style="fill:#8C5835;" d="M117.08,199h31.64h27.5v-15.055h-27.5h-31.64c-12.82,0-23.25,10.43-23.25,23.25   c0,2.634,0.447,5.165,1.258,7.528C98.224,205.587,106.894,199,117.08,199z"/>
	<polygon style="fill:#956341;" points="389.353,173 386.508,173 324.52,173 324.52,199 359.965,199 389.353,199  "/>
	<polygon style="fill:#8C5835;" points="324.52,183.945 324.52,199 359.965,199 389.353,199 389.353,183.945 359.965,183.945  "/>
	<rect x="119.037" y="11.21" style="fill:#956341;" width="87.426" height="26"/>
	<rect x="119.037" y="22.155" style="fill:#8C5835;" width="87.426" height="15.055"/>
	<g>
		<g id="XMLID_77_">
			<g>
				<path style="fill:#F2EDE2;" d="M394.73,88.28l2.47,27.03c-1.4,48.19-33.23,88.73-76.95,103.1v30.16      c0,16.25-13.18,29.43-29.43,29.43h-77.14c-16.25,0-29.43-13.18-29.43-29.43v-30.16c-43.72-14.37-75.55-54.91-76.95-103.1      l2.25-26C120.04,38.33,165.17,0,219.25,0h66C338.97,0,383.85,37.82,394.73,88.28z"/>
			</g>
			<path style="fill:#EDE2CC;" d="M243.585,248.57v-30.16c-43.72-14.37-75.55-54.91-76.95-103.1l2.25-26     C179.375,38.33,224.505,0,278.585,0H219.25c-54.08,0-99.21,38.33-109.7,89.31l-2.25,26c1.4,48.19,33.23,88.73,76.95,103.1v30.16     c0,16.25,13.18,29.43,29.43,29.43h59.335C256.765,278,243.585,264.82,243.585,248.57z"/>
			<circle style="fill:#E2D3B7;" cx="187.136" cy="102" r="46"/>
			<circle style="fill:#E2D3B7;" cx="318.477" cy="102" r="46"/>
			<path style="fill:#D6C09D;" d="M187.136,56c-4.441,0-8.729,0.642-12.792,1.816c19.179,5.543,33.208,23.22,33.208,44.184     s-14.03,38.641-33.208,44.184c4.062,1.174,8.351,1.816,12.792,1.816c25.405,0,46-20.595,46-46S212.541,56,187.136,56z"/>
			<path style="fill:#956341;" d="M77.72,63.11c0-14.28,11.62-25.9,25.9-25.9h15.417v-26H103.62c-28.62,0-51.9,23.28-51.9,51.9     C51.72,91.72,75,115,103.62,115h59.47V89h-59.47C89.34,89,77.72,77.38,77.72,63.11z"/>
			<path style="fill:#956341;" d="M142.924,89c-1.155,4.032-1.787,8.286-1.787,12.69c0,4.629,0.691,9.096,1.963,13.31h87.19h0.883     c1.272-4.214,1.963-8.681,1.963-13.31c0-4.404-0.632-8.657-1.787-12.69h-0.879H142.924z"/>
			<path style="fill:#D6C09D;" d="M318.477,56c-4.441,0-8.729,0.642-12.792,1.816c19.179,5.543,33.208,23.22,33.208,44.184     s-14.03,38.641-33.208,44.184c4.062,1.174,8.351,1.816,12.792,1.816c25.405,0,46-20.595,46-46S343.882,56,318.477,56z"/>
			<path style="fill:#956341;" d="M399.6,89.31h-48.801v26H399.6c15.91,0,28.85,12.94,28.85,28.85c0,15.9-12.94,28.84-28.85,28.84     h-17.901v26H399.6c30.24,0,54.85-24.6,54.85-54.84C454.45,113.91,429.84,89.31,399.6,89.31z"/>
			<path style="fill:#956341;" d="M364.477,102c0-4.404-0.632-8.657-1.787-12.69h-86.66h-1.765     c-1.155,4.032-1.787,8.286-1.787,12.69c0,4.629,0.691,9.096,1.963,13.31h1.769h86.304     C363.786,111.096,364.477,106.629,364.477,102z"/>
			<g>
				<g>
					<path style="fill:#8C5835;" d="M146.936,348.944c-0.436,2.445-0.676,4.958-0.676,7.526c0,23.61,19.21,42.81,42.81,42.81h19.976       v-15.055H189.07C168.039,384.225,150.507,368.973,146.936,348.944z"/>
				</g>
				<g>
					<path style="fill:#8C5835;" d="M308.895,404.565c1.543-2.116,2.465-4.713,2.465-7.53c0-7.06-5.74-12.81-12.81-12.81h-8.986       v15.055h8.986C302.803,399.28,306.564,401.369,308.895,404.565z"/>
				</g>
			</g>
			<rect x="203.055" y="384.225" style="fill:#8C5835;" width="92.5" height="15.055"/>
			<path style="fill:#8C5835;" d="M119.037,37.21V22.155H103.62c-14.28,0-25.9,11.62-25.9,25.9c0,2.616,0.394,5.142,1.12,7.525     c3.234-10.619,13.118-18.37,24.78-18.37H119.037z"/>
			<path style="fill:#8C5835;" d="M232.51,94.171c-0.023,0.141-0.055,0.291-0.093,0.448c-0.765,3.165-3.702,5.326-6.959,5.326     H103.62c-26.063,0-47.689-19.308-51.347-44.364c-0.359,2.459-0.553,4.972-0.553,7.529C51.72,91.72,75,115,103.62,115h39.48h19.99     h67.2h0.883c1.272-4.214,1.963-8.681,1.963-13.31C233.136,99.127,232.916,96.618,232.51,94.171z"/>
			<path style="fill:#8C5835;" d="M399.6,183.945h-17.901V199H399.6c30.24,0,54.85-24.6,54.85-54.84c0-2.555-0.19-5.066-0.529-7.529     C450.238,163.321,427.286,183.945,399.6,183.945z"/>
			<path style="fill:#8C5835;" d="M399.6,100.255h-48.801H276.21h-1.769c-0.566-1.876-1.01-3.805-1.337-5.774     c-0.407,2.447-0.626,4.957-0.626,7.519c0,4.629,0.691,9.096,1.963,13.31h1.769h74.589h11.715H399.6     c13.305,0,24.527,9.052,27.847,21.32c0.65-2.401,1.003-4.922,1.003-7.525C428.45,113.195,415.51,100.255,399.6,100.255z"/>
		</g>
	</g>
	<g>
		<path style="fill:#E2D3B7;" d="M236.25,193.5c-4.142,0-7.5-3.357-7.5-7.5v-10c0-4.143,3.358-7.5,7.5-7.5s7.5,3.357,7.5,7.5v10    C243.75,190.143,240.392,193.5,236.25,193.5z"/>
	</g>
	<g>
		<path style="fill:#E2D3B7;" d="M269.25,193.5c-4.142,0-7.5-3.357-7.5-7.5v-10c0-4.143,3.358-7.5,7.5-7.5s7.5,3.357,7.5,7.5v10    C276.75,190.143,273.392,193.5,269.25,193.5z"/>
	</g>
	<path style="fill:#E2D3B7;" d="M234.75,278v-39c0-4.143-3.358-7.5-7.5-7.5s-7.5,3.357-7.5,7.5v39H234.75z"/>
	<path style="fill:#E2D3B7;" d="M284.75,278v-39c0-4.143-3.358-7.5-7.5-7.5s-7.5,3.357-7.5,7.5v39H284.75z"/>
	<g>
		<path style="fill:#85898E;" d="M284.25,504.5h-61c-4.142,0-7.5-3.357-7.5-7.5s3.358-7.5,7.5-7.5h61c4.142,0,7.5,3.357,7.5,7.5    S288.392,504.5,284.25,504.5z"/>
	</g>
</g>















</svg>
