
<svg xmlns="http://www.w3.org/2000/svg" xmlns:xlink="http://www.w3.org/1999/xlink" version="1.1" id="Capa_1" x="0px" y="0px" viewBox="0 0 502.33 502.33" style="enable-background:new 0 0 502.33 502.33;" xml:space="preserve" width="512" height="512">
<g>
	<g>
		<g>
			<g>
				<circle style="fill:#CB5ECE;" cx="251.165" cy="251.165" r="243.665"/>
			</g>
		</g>
	</g>
	<g>
		<g>
			<g>
				<path style="fill:#AC4FC2;" d="M251.165,7.5c-5.039,0-10.037,0.171-15,0.473C363.749,15.724,464.83,121.631,464.83,251.165      S363.749,486.606,236.165,494.356c4.963,0.302,9.961,0.473,15,0.473c134.572,0,243.665-109.092,243.665-243.665      S385.737,7.5,251.165,7.5z"/>
			</g>
		</g>
	</g>
	<g>
		<g>
			<g>
				<path style="fill:#D8D8D3;" d="M133.832,105.499c-4.475,4.475-6.46,10.496-5.961,16.344c-5.848-0.499-11.869,1.485-16.344,5.961      c-8.053,8.053-8.053,21.109,0,29.162c8.053,8.053,21.109,8.053,29.162,0c0.9-0.9,1.694-1.864,2.392-2.875l101.485,101.485      l17.037-17.037L160.119,137.054c1.011-0.698,1.975-1.493,2.875-2.392c8.053-8.053,8.053-21.109,0-29.162      C154.941,97.446,141.885,97.446,133.832,105.499z"/>
			</g>
		</g>
	</g>
	<g>
		<g>
			<g>
				<path style="fill:#D8D8D3;" d="M366.253,105.499c4.475,4.475,6.46,10.496,5.961,16.344c5.848-0.499,11.869,1.485,16.344,5.961      c8.053,8.053,8.053,21.109,0,29.162c-8.053,8.053-21.109,8.053-29.162,0c-0.9-0.9-1.694-1.864-2.392-2.875L255.518,255.576      l-17.037-17.037l101.485-101.485c-1.011-0.698-1.975-1.493-2.875-2.392c-8.053-8.053-8.053-21.109,0-29.162      C345.144,97.446,358.2,97.446,366.253,105.499z"/>
			</g>
		</g>
	</g>
	<g>
		<g>
			<g>
				<path style="fill:#D8D8D3;" d="M368.497,396.83c4.475-4.475,6.46-10.496,5.961-16.344c5.848,0.499,11.869-1.485,16.344-5.961      c8.053-8.053,8.053-21.109,0-29.162c-8.053-8.053-21.109-8.053-29.162,0c-0.9,0.9-1.694,1.864-2.392,2.875L257.763,246.753      l-17.037,17.037L342.21,365.276c-1.011,0.698-1.975,1.493-2.875,2.392c-8.053,8.053-8.053,21.109,0,29.162      C347.388,404.883,360.444,404.883,368.497,396.83z"/>
			</g>
		</g>
	</g>
	<g>
		<g>
			<g>
				<path style="fill:#D8D8D3;" d="M136.076,396.83c-4.475-4.475-6.46-10.496-5.961-16.344c-5.848,0.499-11.869-1.485-16.344-5.961      c-8.053-8.053-8.053-21.109,0-29.162c8.053-8.053,21.109-8.053,29.162,0c0.9,0.9,1.694,1.864,2.392,2.875l101.485-101.485      l17.037,17.037L162.363,365.276c1.011,0.698,1.975,1.493,2.875,2.392c8.053,8.053,8.053,21.109,0,29.162      C157.186,404.883,144.129,404.883,136.076,396.83z"/>
			</g>
		</g>
	</g>
	<g>
		<g>
			<g>
				<path style="fill:#D8D8D3;" d="M333.205,208.413v-4.4c0-45.362-37.115-80.477-82.477-80.477h0      c-45.362,0-82.477,35.115-82.477,80.477v6.395c-11.437,5.919-19.305,17.866-19.305,31.569l0,0      c0,19.194,15.43,34.948,34.498,35.498v68.678h144.62V276.9c16.49-3.054,29.083-17.585,29.083-34.924l0,0      C357.146,226.49,347.099,213.245,333.205,208.413z"/>
			</g>
		</g>
	</g>
	<g>
		<g>
			<g>
				<path style="fill:#B4B4B4;" d="M333.205,208.413v-4.4c0-45.362-37.115-80.477-82.477-80.477h0c-5.122,0-10.13,0.47-15,1.33      c38.262,6.753,67.477,38.907,67.477,79.147v4.4c15.578,2.083,26.941,18.077,26.941,33.563c0,17.339-15.593,30.87-32.083,33.924      v70.252h30V276.9c16.49-3.053,29.083-17.585,29.083-34.924C357.146,226.49,347.099,213.245,333.205,208.413z"/>
			</g>
		</g>
	</g>
	<g>
		<g>
			<g>
				<path style="fill:#CB5ECE;" d="M193.314,224.208c-1.031,2.679-1.602,5.586-1.602,8.628c0,13.27,10.757,24.027,24.027,24.027      c13.27,0,24.027-10.757,24.027-24.027c0-3.042-0.571-5.949-1.602-8.628H193.314z"/>
			</g>
		</g>
	</g>
	<g>
		<g>
			<g>
				<path style="fill:#CB5ECE;" d="M267.928,224.208c-1.031,2.679-1.602,5.586-1.602,8.628c0,13.27,10.757,24.027,24.027,24.027      c13.27,0,24.027-10.757,24.027-24.027c0-3.042-0.571-5.949-1.602-8.628H267.928z"/>
			</g>
		</g>
	</g>
	<g>
		<path style="fill:#18191B;" d="M168.298,100.196c-10.965-10.964-28.805-10.964-39.77,0c-4.025,4.026-6.684,9.107-7.73,14.574    c-5.467,1.047-10.549,3.706-14.574,7.731c-5.312,5.311-8.237,12.373-8.237,19.885s2.925,14.573,8.237,19.885    c5.311,5.312,12.373,8.236,19.884,8.236c6.238,0,12.166-2.017,17.039-5.744l3.218,3.218c2.929,2.929,7.678,2.929,10.606,0    c2.929-2.929,2.929-7.678,0-10.606l-8.586-8.586c-1.573-1.573-3.762-2.368-5.979-2.166c-2.215,0.2-4.228,1.374-5.493,3.204    c-0.461,0.668-0.975,1.286-1.526,1.837c-5.116,5.115-13.439,5.115-18.556,0c-2.478-2.479-3.843-5.773-3.843-9.278    s1.365-6.8,3.844-9.278c2.739-2.74,6.53-4.122,10.403-3.791c2.202,0.188,4.377-0.606,5.94-2.17    c1.564-1.564,2.357-3.738,2.169-5.941c-0.33-3.872,1.052-7.664,3.791-10.403c5.115-5.115,13.439-5.116,18.556,0    c5.116,5.116,5.116,13.44,0,18.556c-0.552,0.552-1.17,1.065-1.836,1.526c-1.831,1.265-3.005,3.277-3.206,5.493    c-0.201,2.216,0.593,4.407,2.166,5.98l17.744,17.744c-7.691,13.153-11.809,28.173-11.809,43.912v2.113    c-12.015,7.946-19.305,21.296-19.305,35.85c0,20.558,14.92,38.127,34.498,42.149v22.89l-30.555,30.554    c-11.013-8.398-26.862-7.569-36.921,2.491c-5.312,5.311-8.236,12.373-8.236,19.884c0,7.512,2.925,14.573,8.236,19.884    c4.025,4.025,9.107,6.684,14.574,7.731c1.047,5.467,3.706,10.548,7.731,14.574c5.482,5.482,12.684,8.223,19.884,8.223    c7.201,0,14.402-2.741,19.884-8.223c10.059-10.059,10.89-25.905,2.491-36.921l11.561-11.561H319.98l11.561,11.561    c-8.398,11.015-7.568,26.861,2.491,36.921c5.482,5.482,12.683,8.223,19.884,8.223c7.201,0,14.403-2.741,19.885-8.223    c4.025-4.026,6.684-9.107,7.73-14.574c5.467-1.047,10.549-3.706,14.574-7.731c5.312-5.312,8.237-12.374,8.237-19.885    s-2.925-14.573-8.236-19.884c-5.312-5.312-12.374-8.237-19.885-8.237c-6.238,0-12.166,2.018-17.039,5.744l-8.016-8.016    c-2.929-2.929-7.678-2.929-10.606,0c-2.929,2.929-2.929,7.678,0,10.606l13.384,13.384c1.573,1.573,3.758,2.367,5.979,2.166    c2.215-0.2,4.228-1.375,5.493-3.205c0.46-0.666,0.974-1.284,1.527-1.836c2.478-2.479,5.772-3.843,9.277-3.843    s6.799,1.365,9.278,3.844c2.479,2.478,3.843,5.772,3.843,9.277s-1.365,6.799-3.844,9.278c-2.739,2.74-6.536,4.121-10.403,3.792    c-2.207-0.193-4.377,0.605-5.941,2.169c-1.564,1.563-2.357,3.738-2.169,5.941c0.33,3.872-1.052,7.664-3.791,10.403    c-5.116,5.116-13.44,5.116-18.556,0c-5.115-5.116-5.115-13.44-0.001-18.555c0.554-0.553,1.171-1.066,1.836-1.526    c1.831-1.265,3.006-3.277,3.207-5.494c0.201-2.216-0.592-4.407-2.166-5.98l-12.145-12.145c0.123-0.54,0.195-1.099,0.195-1.676    v-63.485c17.174-5.877,29.083-22.102,29.083-40.691c0-16.453-9.427-31.326-23.943-38.532    c-0.099-15.876-4.386-31.009-12.312-44.208l16.878-16.878c1.573-1.573,2.367-3.764,2.166-5.98    c-0.201-2.216-1.375-4.228-3.206-5.493c-0.666-0.461-1.284-0.974-1.836-1.526c-5.116-5.116-5.115-13.44,0.001-18.556    c5.116-5.115,13.44-5.116,18.555,0c2.74,2.74,4.122,6.532,3.792,10.404c-0.188,2.203,0.605,4.377,2.169,5.941    c1.563,1.563,3.737,2.356,5.94,2.17c3.873-0.33,7.664,1.052,10.404,3.792c2.479,2.478,3.843,5.773,3.843,9.278    s-1.365,6.8-3.843,9.278c-5.116,5.116-13.44,5.117-18.556,0c-0.551-0.552-1.065-1.169-1.526-1.837    c-1.265-1.83-3.277-3.004-5.493-3.204c-2.219-0.2-4.407,0.593-5.979,2.166l-7.01,7.01c-2.929,2.929-2.929,7.678,0,10.606    c2.929,2.929,7.678,2.929,10.606,0l1.644-1.644c5.012,3.822,11.024,5.732,17.037,5.732c7.201,0,14.402-2.741,19.885-8.223    c10.964-10.965,10.964-28.805,0-39.769c-4.025-4.026-9.106-6.685-14.574-7.731c-1.047-5.467-3.706-10.548-7.731-14.574    c-10.964-10.964-28.804-10.963-39.769,0c-10.06,10.06-10.891,25.906-2.491,36.921l-9.836,9.836    c-1.671-1.921-3.417-3.791-5.271-5.583c-16.903-16.337-39.44-25.335-63.462-25.335c-24.021,0-46.559,8.998-63.462,25.335    c-2.089,2.019-4.059,4.126-5.916,6.308l-10.562-10.562C179.188,126.102,178.357,110.255,168.298,100.196z M157.06,359.973    c-1.574,1.573-2.367,3.764-2.166,5.98c0.201,2.216,1.376,4.229,3.207,5.494c0.665,0.459,1.283,0.973,1.834,1.524    c5.116,5.116,5.116,13.44,0,18.556c-5.116,5.115-13.439,5.115-18.556,0c-2.739-2.74-4.121-6.531-3.791-10.403    c0.188-2.203-0.605-4.377-2.169-5.941c-1.563-1.564-3.733-2.362-5.941-2.169c-3.872,0.33-7.664-1.052-10.403-3.792    c-2.479-2.478-3.843-5.772-3.843-9.277s1.365-6.8,3.843-9.278c2.479-2.478,5.773-3.843,9.278-3.843c3.505,0,6.8,1.365,9.278,3.843    c0.552,0.552,1.066,1.17,1.526,1.836c1.265,1.831,3.277,3.004,5.493,3.205c2.216,0.201,4.406-0.593,5.979-2.166l25.314-25.314    v12.862L157.06,359.973z M250.728,131.036c20.111,0,38.946,7.501,53.037,21.121c14.148,13.675,21.94,32.091,21.94,51.856v4.4    c0,3.193,2.021,6.035,5.037,7.084c11.308,3.932,18.905,14.573,18.905,26.479c0,13.5-9.651,25.087-22.949,27.549    c-3.555,0.658-6.134,3.759-6.134,7.375v61.752h-19.521v-30.431c0-4.142-3.358-7.5-7.5-7.5s-7.5,3.358-7.5,7.5v30.431h-11.998    v-19.121c0-4.142-3.358-7.5-7.5-7.5s-7.5,3.358-7.5,7.5v19.121h-11.998v-19.121c0-4.142-3.358-7.5-7.5-7.5s-7.5,3.358-7.5,7.5    v19.121H220.05v-34.752c0-4.142-3.358-7.5-7.5-7.5s-7.5,3.358-7.5,7.5v34.752h-14.106v-27.441c0.127-0.79,0.127-1.595,0-2.385    v-31.353c0-4.058-3.228-7.38-7.284-7.497c-15.005-0.432-27.213-12.993-27.213-28c0-10.495,5.844-20.039,15.252-24.908    c2.489-1.288,4.053-3.857,4.053-6.661v-6.395c0-14.783,4.362-28.811,12.479-40.665c0.06-0.084,0.121-0.168,0.177-0.254    c2.695-3.9,5.794-7.564,9.285-10.937C211.782,138.536,230.618,131.036,250.728,131.036z"/>
		<path style="fill:#18191B;" d="M428.765,73.565C381.326,26.126,318.253,0,251.165,0C200.833,0,152.272,14.835,110.731,42.9    c-40.533,27.384-71.997,65.593-90.99,110.498c-1.613,3.815,0.171,8.216,3.986,9.83c3.817,1.613,8.216-0.171,9.83-3.986    c17.859-42.225,47.45-78.157,85.572-103.912C158.18,28.946,203.838,15,251.165,15c63.082,0,122.388,24.565,166.994,69.171    c44.605,44.605,69.171,103.912,69.171,166.994s-24.565,122.388-69.171,166.994c-44.606,44.605-103.912,69.171-166.994,69.171    s-122.388-24.565-166.994-69.171S15,314.247,15,251.165c0-23.016,3.302-45.76,9.815-67.599c1.184-3.969-1.075-8.146-5.044-9.331    c-3.969-1.183-8.146,1.075-9.331,5.044C3.513,202.511,0,226.696,0,251.165c0,67.088,26.125,130.162,73.564,177.6    c47.438,47.439,110.512,73.564,177.6,73.564c67.089,0,130.162-26.125,177.601-73.564c47.439-47.438,73.564-110.512,73.564-177.6    S476.204,121.003,428.765,73.565z"/>
		<path style="fill:#18191B;" d="M234.135,280.943c0,4.142,3.358,7.5,7.5,7.5h22.821c4.142,0,7.5-3.358,7.5-7.5s-3.358-7.5-7.5-7.5    h-22.821C237.493,273.443,234.135,276.801,234.135,280.943z"/>
		<path style="fill:#18191B;" d="M186.315,221.514c-1.396,3.625-2.104,7.434-2.104,11.322c0,17.384,14.143,31.527,31.527,31.527    s31.528-14.143,31.528-31.527c0-3.888-0.708-7.697-2.104-11.322c-1.114-2.896-3.896-4.806-6.999-4.806h-44.85    C190.211,216.708,187.429,218.619,186.315,221.514z M199.25,231.708h32.979c0.025,0.374,0.038,0.75,0.038,1.127    c0,9.113-7.415,16.527-16.528,16.527s-16.527-7.414-16.527-16.527C199.211,232.458,199.224,232.082,199.25,231.708z"/>
		<path style="fill:#18191B;" d="M290.353,264.363c17.384,0,31.527-14.143,31.527-31.527c0-3.888-0.708-7.698-2.103-11.322    c-1.114-2.896-3.896-4.806-6.999-4.806h-44.85c-3.103,0-5.885,1.91-6.999,4.806c-1.396,3.625-2.104,7.434-2.104,11.322    C258.826,250.22,272.969,264.363,290.353,264.363z M273.864,231.708h32.979c0.025,0.374,0.038,0.75,0.038,1.127    c0,9.113-7.414,16.527-16.527,16.527s-16.527-7.414-16.527-16.527C273.826,232.458,273.838,232.082,273.864,231.708z"/>
	</g>
</g>















</svg>
